<svg width="28" height="20" viewBox="0 0 28 20" fill="none" xmlns="http://www.w3.org/2000/svg">
<path d="M2.83838 19.2506C1.46875 19.2506 0.355469 18.1676 0.355469 16.8353V3.33346C0.355469 2.00193 1.46875 0.918213 2.83838 0.918213H24.6519C26.0208 0.918213 27.1348 2.00193 27.1348 3.33346V16.8353C27.1348 18.1676 26.0208 19.2506 24.6519 19.2506H2.83838ZM1.93384 3.64859V16.5201C1.93384 17.2791 2.56763 17.8953 3.3479 17.8953H24.1423C24.9216 17.8953 25.5562 17.2791 25.5562 16.5201V3.64859C25.5562 2.89057 24.9216 2.27337 24.1423 2.27337H3.3479C2.56763 2.27337 1.93384 2.89057 1.93384 3.64859ZM23.2864 12.7365L21.9238 11.0119L20.5603 12.7365H16.1973V7.43229H20.6973L21.7878 9.02373L23.1514 7.43229H24.6509L22.6069 10.0839L24.6509 12.7365H23.2864ZM17.2908 11.6755H19.8799L21.1077 10.0857L20.0168 8.62632H17.2908V9.55342H19.7441V10.6145H17.2908V11.6755ZM13.6086 12.7365V8.89158L12.1084 12.7365H11.0176L9.51733 8.75859V12.7365H7.20068L6.79297 11.5432H4.47461L4.06519 12.7365H2.83765L4.88232 7.43229H6.38257L8.2915 12.4713V7.43229H10.1995L11.563 11.0119L12.9265 7.43229H14.6995V12.7365H13.6086ZM4.88232 10.3492H6.24683L5.56445 8.49333L4.88232 10.3492Z" fill="#303030"/>
</svg>
